Normalized EMG Linear Envelopes
nRows=38
nColumns=17

endheader
time	        VM	        VL	        RF	       GRA	        TA	   ADDLONG	   SEMIMEM	      BFLH	        GM	        GL	       TFL	   GLUTMAX	   GLUTMED	      PIRI	    OBTINT	        QF	
2.415	  0.013726	  0.021629	  0.076075	  0.261813	  0.290540	  0.080908	  0.043120	  0.072420	  0.045705	  0.014283	  0.039271	  0.019118	  0.095029	  0.272982	  0.440234	  0.154475	
2.4155	  0.013573	  0.021361	  0.074979	  0.261594	  0.288162	  0.081364	  0.043749	  0.072867	  0.045859	  0.014349	  0.038466	  0.019462	  0.096683	  0.277141	  0.451368	  0.156978	
2.416	  0.013419	  0.021092	  0.073884	  0.261359	  0.285776	  0.081831	  0.044406	  0.073330	  0.046010	  0.014420	  0.037673	  0.019819	  0.098362	  0.281324	  0.462653	  0.159516	
2.4165	  0.013266	  0.020824	  0.072791	  0.261106	  0.283383	  0.082307	  0.045093	  0.073808	  0.046160	  0.014496	  0.036891	  0.020189	  0.100066	  0.285528	  0.474088	  0.162088	
2.417	  0.013113	  0.020555	  0.071699	  0.260833	  0.280985	  0.082791	  0.045810	  0.074302	  0.046308	  0.014578	  0.036120	  0.020571	  0.101795	  0.289752	  0.485670	  0.164695	
2.4175	  0.012961	  0.020287	  0.070609	  0.260540	  0.278582	  0.083284	  0.046558	  0.074813	  0.046454	  0.014665	  0.035362	  0.020966	  0.103549	  0.293994	  0.497400	  0.167337	
2.418	  0.012808	  0.020019	  0.069521	  0.260225	  0.276175	  0.083785	  0.047338	  0.075341	  0.046599	  0.014757	  0.034615	  0.021374	  0.105327	  0.298253	  0.509274	  0.170013	
2.4185	  0.012656	  0.019752	  0.068437	  0.259887	  0.273765	  0.084293	  0.048150	  0.075887	  0.046742	  0.014855	  0.033879	  0.021796	  0.107130	  0.302525	  0.521291	  0.172725	
2.419	  0.012505	  0.019484	  0.067356	  0.259524	  0.271352	  0.084808	  0.048994	  0.076451	  0.046884	  0.014959	  0.033156	  0.022232	  0.108959	  0.306810	  0.533448	  0.175471	
2.4195	  0.012354	  0.019218	  0.066279	  0.259136	  0.268938	  0.085329	  0.049872	  0.077033	  0.047024	  0.015069	  0.032444	  0.022681	  0.110811	  0.311106	  0.545745	  0.178252	
2.42	  0.012204	  0.018952	  0.065206	  0.258721	  0.266522	  0.085855	  0.050783	  0.077633	  0.047162	  0.015185	  0.031743	  0.023145	  0.112689	  0.315410	  0.558177	  0.181067	
2.4205	  0.012054	  0.018687	  0.064137	  0.258279	  0.264105	  0.086386	  0.051729	  0.078253	  0.047298	  0.015306	  0.031054	  0.023623	  0.114590	  0.319720	  0.570743	  0.183917	
2.421	  0.011905	  0.018423	  0.063074	  0.257808	  0.261688	  0.086922	  0.052709	  0.078893	  0.047433	  0.015434	  0.030376	  0.024117	  0.116516	  0.324034	  0.583440	  0.186800	
2.4215	  0.011757	  0.018160	  0.062016	  0.257310	  0.259271	  0.087460	  0.053726	  0.079553	  0.047566	  0.015569	  0.029711	  0.024624	  0.118466	  0.328349	  0.596265	  0.189717	
2.422	  0.011609	  0.017898	  0.060964	  0.256783	  0.256856	  0.088002	  0.054778	  0.080233	  0.047698	  0.015709	  0.029056	  0.025148	  0.120440	  0.332664	  0.609215	  0.192668	
2.4225	  0.011462	  0.017637	  0.059918	  0.256228	  0.254442	  0.088546	  0.055866	  0.080934	  0.047828	  0.015856	  0.028413	  0.025686	  0.122437	  0.336976	  0.622288	  0.195652	
2.423	  0.011316	  0.017377	  0.058878	  0.255643	  0.252031	  0.089091	  0.056991	  0.081656	  0.047956	  0.016010	  0.027782	  0.026240	  0.124458	  0.341282	  0.635478	  0.198668	
2.4235	  0.011171	  0.017119	  0.057846	  0.255031	  0.249624	  0.089637	  0.058154	  0.082399	  0.048082	  0.016170	  0.027161	  0.026811	  0.126501	  0.345581	  0.648784	  0.201716	
2.424	  0.011027	  0.016862	  0.056820	  0.254389	  0.247220	  0.090184	  0.059355	  0.083164	  0.048207	  0.016337	  0.026552	  0.027397	  0.128568	  0.349868	  0.662201	  0.204796	
2.4245	  0.010884	  0.016606	  0.055802	  0.253718	  0.244821	  0.090730	  0.060593	  0.083952	  0.048329	  0.016511	  0.025955	  0.028000	  0.130656	  0.354143	  0.675725	  0.207907	
2.425	  0.010742	  0.016352	  0.054791	  0.253018	  0.242428	  0.091274	  0.061871	  0.084762	  0.048450	  0.016692	  0.025369	  0.028619	  0.132766	  0.358403	  0.689352	  0.211048	
2.4255	  0.010601	  0.016099	  0.053789	  0.252290	  0.240041	  0.091817	  0.063187	  0.085594	  0.048569	  0.016880	  0.024794	  0.029256	  0.134898	  0.362643	  0.703078	  0.214220	
2.426	  0.010461	  0.015848	  0.052795	  0.251533	  0.237661	  0.092357	  0.064543	  0.086450	  0.048686	  0.017075	  0.024230	  0.029910	  0.137051	  0.366863	  0.716899	  0.217422	
2.4265	  0.010322	  0.015599	  0.051809	  0.250748	  0.235288	  0.092894	  0.065939	  0.087329	  0.048801	  0.017277	  0.023678	  0.030581	  0.139224	  0.371058	  0.730809	  0.220652	
2.427	  0.010184	  0.015352	  0.050832	  0.249936	  0.232922	  0.093426	  0.067374	  0.088231	  0.048914	  0.017487	  0.023136	  0.031271	  0.141418	  0.375226	  0.744803	  0.223911	
2.4275	  0.010048	  0.015106	  0.049864	  0.249096	  0.230565	  0.093954	  0.068851	  0.089157	  0.049025	  0.017705	  0.022606	  0.031978	  0.143631	  0.379364	  0.758877	  0.227198	
2.428	  0.009913	  0.014862	  0.048905	  0.248230	  0.228217	  0.094477	  0.070368	  0.090108	  0.049133	  0.017930	  0.022087	  0.032704	  0.145863	  0.383469	  0.773026	  0.230513	
2.4285	  0.009779	  0.014620	  0.047955	  0.247339	  0.225879	  0.094994	  0.071927	  0.091083	  0.049240	  0.018162	  0.021580	  0.033449	  0.148114	  0.387537	  0.787242	  0.233854	
2.429	  0.009647	  0.014380	  0.047015	  0.246422	  0.223551	  0.095503	  0.073527	  0.092083	  0.049345	  0.018403	  0.021083	  0.034212	  0.150382	  0.391565	  0.801522	  0.237221	
2.4295	  0.009516	  0.014142	  0.046085	  0.245482	  0.221234	  0.096006	  0.075170	  0.093108	  0.049449	  0.018651	  0.020597	  0.034995	  0.152668	  0.395549	  0.815858	  0.240613	
2.43	  0.009386	  0.013906	  0.045165	  0.244518	  0.218928	  0.096499	  0.076855	  0.094159	  0.049550	  0.018908	  0.020123	  0.035797	  0.154970	  0.399488	  0.830244	  0.244030	
2.4305	  0.009258	  0.013672	  0.044254	  0.243531	  0.216635	  0.096984	  0.078583	  0.095235	  0.049651	  0.019173	  0.019659	  0.036619	  0.157289	  0.403376	  0.844674	  0.247470	
2.431	  0.009131	  0.013440	  0.043354	  0.242522	  0.214353	  0.097459	  0.080354	  0.096338	  0.049750	  0.019446	  0.019207	  0.037461	  0.159622	  0.407210	  0.859142	  0.250932	
2.4315	  0.009006	  0.013210	  0.042464	  0.241492	  0.212085	  0.097924	  0.082169	  0.097467	  0.049848	  0.019727	  0.018765	  0.038324	  0.161970	  0.410987	  0.873639	  0.254416	
2.432	  0.008883	  0.012983	  0.041584	  0.240441	  0.209831	  0.098377	  0.084027	  0.098623	  0.049945	  0.020017	  0.018335	  0.039206	  0.164333	  0.414704	  0.888160	  0.257920	
2.4325	  0.008761	  0.012758	  0.040715	  0.239370	  0.207592	  0.098818	  0.085930	  0.099806	  0.050041	  0.020316	  0.017915	  0.040110	  0.166708	  0.418355	  0.902696	  0.261443	
2.433	  0.008641	  0.012535	  0.039856	  0.238280	  0.205367	  0.099246	  0.087878	  0.101016	  0.050138	  0.020624	  0.017507	  0.041034	  0.169096	  0.421938	  0.917240	  0.264985	
2.4335	  0.008522	  0.012315	  0.039007	  0.237171	  0.203159	  0.099660	  0.089870	  0.102254	  0.050234	  0.020940	  0.017109	  0.041979	  0.171497	  0.425449	  0.931784	  0.268544	
